<?xml version="1.0" encoding="UTF-8"?>
<!DOCTYPE svg PUBLIC "-//W3C//DTD SVG 1.1//EN" "http://www.w3.org/Graphics/SVG/1.1/DTD/svg11.dtd">
<svg version="1.2" width="50mm" height="50mm" viewBox="0 0 5000 5000" preserveAspectRatio="xMidYMid" fill-rule="evenodd" stroke-width="28.222" stroke-linejoin="round" xmlns="http://www.w3.org/2000/svg" xmlns:ooo="http://xml.openoffice.org/svg/export" xmlns:xlink="http://www.w3.org/1999/xlink" xmlns:presentation="http://sun.com/xmlns/staroffice/presentation" xmlns:smil="http://www.w3.org/2001/SMIL20/" xmlns:anim="urn:oasis:names:tc:opendocument:xmlns:animation:1.0" xml:space="preserve">
 <defs class="ClipPathGroup">
  <clipPath id="presentation_clip_path" clipPathUnits="userSpaceOnUse">
   <rect x="0" y="0" width="5000" height="5000"/>
  </clipPath>
  <clipPath id="presentation_clip_path_shrink" clipPathUnits="userSpaceOnUse">
   <rect x="5" y="5" width="4990" height="4990"/>
  </clipPath>
 </defs>
 <defs class="TextShapeIndex">
  <g ooo:slide="id1" ooo:id-list="id3 id4 id5 id6 id7 id8"/>
 </defs>
 <defs class="EmbeddedBulletChars">
  <g id="bullet-char-template-57356" transform="scale(0.00048828125,-0.00048828125)">
   <path d="M 580,1141 L 1163,571 580,0 -4,571 580,1141 Z"/>
  </g>
  <g id="bullet-char-template-57354" transform="scale(0.00048828125,-0.00048828125)">
   <path d="M 8,1128 L 1137,1128 1137,0 8,0 8,1128 Z"/>
  </g>
  <g id="bullet-char-template-10146" transform="scale(0.00048828125,-0.00048828125)">
   <path d="M 174,0 L 602,739 174,1481 1456,739 174,0 Z M 1358,739 L 309,1346 659,739 1358,739 Z"/>
  </g>
  <g id="bullet-char-template-10132" transform="scale(0.00048828125,-0.00048828125)">
   <path d="M 2015,739 L 1276,0 717,0 1260,543 174,543 174,936 1260,936 717,1481 1274,1481 2015,739 Z"/>
  </g>
  <g id="bullet-char-template-10007" transform="scale(0.00048828125,-0.00048828125)">
   <path d="M 0,-2 C -7,14 -16,27 -25,37 L 356,567 C 262,823 215,952 215,954 215,979 228,992 255,992 264,992 276,990 289,987 310,991 331,999 354,1012 L 381,999 492,748 772,1049 836,1024 860,1049 C 881,1039 901,1025 922,1006 886,937 835,863 770,784 769,783 710,716 594,584 L 774,223 C 774,196 753,168 711,139 L 727,119 C 717,90 699,76 672,76 641,76 570,178 457,381 L 164,-76 C 142,-110 111,-127 72,-127 30,-127 9,-110 8,-76 1,-67 -2,-52 -2,-32 -2,-23 -1,-13 0,-2 Z"/>
  </g>
  <g id="bullet-char-template-10004" transform="scale(0.00048828125,-0.00048828125)">
   <path d="M 285,-33 C 182,-33 111,30 74,156 52,228 41,333 41,471 41,549 55,616 82,672 116,743 169,778 240,778 293,778 328,747 346,684 L 369,508 C 377,444 397,411 428,410 L 1163,1116 C 1174,1127 1196,1133 1229,1133 1271,1133 1292,1118 1292,1087 L 1292,965 C 1292,929 1282,901 1262,881 L 442,47 C 390,-6 338,-33 285,-33 Z"/>
  </g>
  <g id="bullet-char-template-9679" transform="scale(0.00048828125,-0.00048828125)">
   <path d="M 813,0 C 632,0 489,54 383,161 276,268 223,411 223,592 223,773 276,916 383,1023 489,1130 632,1184 813,1184 992,1184 1136,1130 1245,1023 1353,916 1407,772 1407,592 1407,412 1353,268 1245,161 1136,54 992,0 813,0 Z"/>
  </g>
  <g id="bullet-char-template-8226" transform="scale(0.00048828125,-0.00048828125)">
   <path d="M 346,457 C 273,457 209,483 155,535 101,586 74,649 74,723 74,796 101,859 155,911 209,963 273,989 346,989 419,989 480,963 531,910 582,859 608,796 608,723 608,648 583,586 532,535 482,483 420,457 346,457 Z"/>
  </g>
  <g id="bullet-char-template-8211" transform="scale(0.00048828125,-0.00048828125)">
   <path d="M -4,459 L 1135,459 1135,606 -4,606 -4,459 Z"/>
  </g>
  <g id="bullet-char-template-61548" transform="scale(0.00048828125,-0.00048828125)">
   <path d="M 173,740 C 173,903 231,1043 346,1159 462,1274 601,1332 765,1332 928,1332 1067,1274 1183,1159 1299,1043 1357,903 1357,740 1357,577 1299,437 1183,322 1067,206 928,148 765,148 601,148 462,206 346,322 231,437 173,577 173,740 Z"/>
  </g>
 </defs>
 <g>
  <g id="id2" class="Master_Slide">
   <g id="bg-id2" class="Background"/>
   <g id="bo-id2" class="BackgroundObjects"/>
  </g>
 </g>
 <g class="SlideGroup">
  <g>
   <g id="container-id1">
    <g id="id1" class="Slide" clip-path="url(#presentation_clip_path)">
     <g class="Page">
      <g class="com.sun.star.drawing.CustomShape">
       <g id="id3">
        <rect class="BoundingBox" stroke="none" fill="none" x="225" y="225" width="4552" height="4552"/>
        <path fill="rgb(255,255,255)" stroke="none" d="M 250,779 L 250,779 C 250,686 274,595 321,515 367,434 434,367 515,321 595,274 686,250 779,250 L 4221,250 4222,250 C 4315,250 4406,274 4486,321 4567,367 4634,434 4680,515 4727,595 4751,686 4751,779 L 4751,779 4751,4221 4751,4222 C 4751,4315 4727,4406 4680,4486 4634,4567 4567,4634 4486,4680 4406,4727 4315,4751 4222,4751 L 779,4751 779,4751 C 686,4751 595,4727 515,4680 434,4634 367,4567 321,4486 274,4406 250,4315 250,4222 L 250,779 Z"/>
        <path fill="none" stroke="rgb(0,0,0)" stroke-width="50" stroke-linejoin="round" d="M 250,779 L 250,779 C 250,686 274,595 321,515 367,434 434,367 515,321 595,274 686,250 779,250 L 4221,250 4222,250 C 4315,250 4406,274 4486,321 4567,367 4634,434 4680,515 4727,595 4751,686 4751,779 L 4751,779 4751,4221 4751,4222 C 4751,4315 4727,4406 4680,4486 4634,4567 4567,4634 4486,4680 4406,4727 4315,4751 4222,4751 L 779,4751 779,4751 C 686,4751 595,4727 515,4680 434,4634 367,4567 321,4486 274,4406 250,4315 250,4222 L 250,779 Z"/>
       </g>
      </g>
      <g class="com.sun.star.drawing.CustomShape">
       <g id="id4">
        <rect class="BoundingBox" stroke="none" fill="none" x="490" y="990" width="4021" height="1322"/>
        <path fill="rgb(153,204,255)" stroke="none" d="M 500,1000 L 4500,1000 4500,2301 500,2301 500,1000 500,1000 Z"/>
        <path fill="none" stroke="rgb(0,0,0)" stroke-width="20" stroke-linejoin="round" d="M 500,1000 L 4500,1000 4500,2301 500,2301 500,1000 500,1000 Z"/>
       </g>
      </g>
      <g class="com.sun.star.drawing.CustomShape">
       <g id="id5">
        <rect class="BoundingBox" stroke="none" fill="none" x="490" y="2565" width="4021" height="773"/>
        <path fill="rgb(243,160,140)" stroke="none" d="M 500,2575 L 4500,2575 4500,3326 500,3326 500,2575 500,2575 Z"/>
        <path fill="none" stroke="rgb(0,0,0)" stroke-width="20" stroke-linejoin="round" d="M 500,2575 L 4500,2575 4500,3326 500,3326 500,2575 500,2575 Z"/>
       </g>
      </g>
      <g class="com.sun.star.drawing.CustomShape">
       <g id="id6">
        <rect class="BoundingBox" stroke="none" fill="none" x="490" y="3565" width="4021" height="772"/>
        <path fill="rgb(255,255,102)" stroke="none" d="M 500,3575 L 4500,3575 4500,4326 500,4326 500,3575 500,3575 Z"/>
        <path fill="none" stroke="rgb(0,0,0)" stroke-width="20" stroke-linejoin="round" d="M 500,3575 L 4500,3575 4500,4326 500,4326 500,3575 500,3575 Z"/>
       </g>
      </g>
      <g class="com.sun.star.drawing.LineShape">
       <g id="id7">
        <rect class="BoundingBox" stroke="none" fill="none" x="2425" y="2100" width="151" height="501"/>
        <path fill="none" stroke="rgb(0,0,0)" stroke-width="50" stroke-linejoin="round" d="M 2500,2575 L 2500,2240"/>
        <path fill="rgb(0,0,0)" stroke="none" d="M 2486,2248 L 2473,2244 2459,2238 2447,2228 2437,2216 2431,2202 2427,2189 2425,2175 2427,2161 2431,2147 2437,2134 2447,2122 2459,2112 2473,2106 2486,2101 2500,2100 2514,2101 2528,2106 2541,2112 2553,2122 2563,2134 2569,2147 2573,2161 2575,2175 2573,2189 2569,2202 2563,2216 2553,2228 2541,2238 2528,2244 2514,2248 2500,2250 2486,2248 Z"/>
       </g>
      </g>
      <g class="com.sun.star.drawing.LineShape">
       <g id="id8">
        <rect class="BoundingBox" stroke="none" fill="none" x="2425" y="4300" width="151" height="326"/>
        <path fill="none" stroke="rgb(0,0,0)" stroke-width="50" stroke-linejoin="round" d="M 2500,4325 L 2500,4485"/>
        <path fill="rgb(0,0,0)" stroke="none" d="M 2514,4477 L 2527,4481 2541,4487 2553,4497 2563,4509 2569,4523 2573,4536 2575,4550 2573,4564 2569,4578 2563,4591 2553,4603 2541,4613 2527,4619 2514,4624 2500,4625 2486,4624 2472,4619 2459,4613 2447,4603 2437,4591 2431,4578 2427,4564 2425,4550 2427,4536 2431,4523 2437,4509 2447,4497 2459,4487 2472,4481 2486,4477 2500,4475 2514,4477 Z"/>
       </g>
      </g>
     </g>
    </g>
   </g>
  </g>
 </g>
</svg>